<?xml version="1.0" encoding="utf-8"?>
<!-- Generator: Adobe Illustrator 23.0.3, SVG Export Plug-In . SVG Version: 6.00 Build 0)  -->
<svg version="1.1" id="Layer_1" xmlns="http://www.w3.org/2000/svg" xmlns:xlink="http://www.w3.org/1999/xlink" x="0px" y="0px"
	 viewBox="0 0 1200 1200" enable-background="new 0 0 1200 1200" xml:space="preserve">
<g>
	<path fill="#3F3027" d="M550.027,230.449c-1.258,1.681-2.795,3.069-4.981,3.542c-1.168,0.252-2.319,0.196-3.404-0.1
		c-5.82-0.542-10.497-6.672-11.143-12.53c-0.683-6.194,2.36-12.634,7.376-16.275c5.316-3.858,13.621-4.407,16.624,2.617
		c1.718,4.017,1.422,8.977,0.112,13.457c-0.229,1.374-0.645,2.766-1.128,3.996C552.71,227.123,551.519,228.94,550.027,230.449z
		 M590.464,209.761c1.421-6.271,0.782-18.205-5.057-22.895c-1.961-2.388-4.766-3.485-8.482-2.366
		c-7.645,2.302-10.598,13.768-10.118,20.715c0.017,0.248,0.057,0.515,0.09,0.776c0.055,6.018,2.161,12.095,6.646,16.001
		C582.038,229.394,588.862,216.83,590.464,209.761z M621.209,220.529c0.841-4.643,0.002-10.171-2.698-14.116
		c-3.422-5-9.858-5.369-14.365-1.636c-8.022,6.644-7.899,19.264,0.546,25.527c2.036,1.51,4.584,2.555,7.084,2.135
		C617.099,231.545,620.344,225.312,621.209,220.529z M412.165,322.957c-4.286,0.172-8.831-3.273-12.831-4.475
		c-25.743-7.732-51.155-24.82-71.003-40.7c-14.788-11.832-32.299-34.203-20.492-54.148c1.56-2.635,4.155-4.906,7.211-5.066
		c13.432-0.706,22.336,23.774,28.012,32.889c11.415,18.33,25.154,37.578,43.214,49.872c6.816,4.64,14.185,8.359,21.238,12.61
		c1.005,0.606,4.581,3.009,6.485,5.184C415.687,321.051,416.062,322.8,412.165,322.957z M739.66,319.123
		c1.904-2.175,5.48-4.579,6.485-5.184c7.053-4.251,14.422-7.97,21.238-12.61c18.06-12.294,31.799-31.542,43.214-49.872
		c5.676-9.115,14.579-33.595,28.012-32.889c3.056,0.161,5.651,2.432,7.211,5.066c11.807,19.945-5.704,42.316-20.492,54.148
		c-19.848,15.88-45.26,32.968-71.003,40.7c-4,1.202-8.545,4.647-12.831,4.475C737.597,322.8,737.972,321.051,739.66,319.123z"/>
	<path fill="#7C6859" d="M340.868,555.432c-5.278-1.162-2.899-8.664,2.183-7.918c77.508,11.379,156.687,17.067,235.02,15.034
		c38.937-1.01,77.872-4.005,116.527-8.787c36.307-4.492,73.8-7.435,106.763-24.672c2.168-1.134,4.134,1.522,2.555,3.311
		c-23.203,26.292-64.353,29.879-97.121,34.628c-39.265,5.691-78.757,9.203-118.411,10.539
		C504.874,580.379,422.441,573.387,340.868,555.432L340.868,555.432z M363.718,521.517c26.214-1.287,53.153-11.895,78.897-17.213
		c29.772-6.151,59.828-10.935,90.115-13.689c59.52-5.412,116.936,0.206,175.641,10.351c2.384,0.412,3.31-2.809,1.003-3.638
		c-55.793-20.052-117.951-22.466-176.644-18.617c-29.244,1.918-58.323,6.017-87.071,11.683c-26.99,5.319-59.894,9.863-83.958,23.68
		C358.365,515.99,359.695,521.715,363.718,521.517L363.718,521.517z M493.928,532.258c39.752,4.405,80.977,4.068,120.326-3.721
		c2.334-0.462,1.588-3.762-0.531-3.923c-39.663-3.023-80.083-2.198-119.795-0.345C488.692,524.513,488.898,531.701,493.928,532.258
		L493.928,532.258z M192.93,315.996c-6.072,0-10.995,4.922-10.995,10.995c0,6.072,4.922,10.995,10.995,10.995
		s10.995-4.922,10.995-10.995C203.925,320.918,199.002,315.996,192.93,315.996z M225.914,261.023
		c-6.072,0-10.995,4.922-10.995,10.995c0,6.072,4.922,10.995,10.995,10.995s10.995-4.922,10.995-10.995
		C236.908,265.945,231.986,261.023,225.914,261.023z M907.58,348.979c-6.072,0-10.995,4.922-10.995,10.995
		c0,6.072,4.922,10.995,10.995,10.995s10.995-4.922,10.995-10.995C918.574,353.902,913.652,348.979,907.58,348.979z
		 M958.047,360.343c-5.868-1.56-11.89,1.933-13.45,7.801c-1.56,5.868,1.933,11.89,7.801,13.45s11.89-1.933,13.45-7.801
		C967.409,367.925,963.916,361.903,958.047,360.343z M1002.026,378.667c-5.868-1.56-11.89,1.933-13.45,7.801
		c-1.56,5.868,1.933,11.89,7.801,13.45s11.89-1.933,13.45-7.801C1011.387,386.249,1007.894,380.227,1002.026,378.667z
		 M1046.004,418.981c-5.868-1.56-11.89,1.933-13.45,7.801c-1.56,5.868,1.933,11.89,7.801,13.45c5.868,1.56,11.89-1.933,13.45-7.801
		C1055.366,426.563,1051.873,420.541,1046.004,418.981z M1071.658,462.959c-5.868-1.56-11.89,1.933-13.45,7.801
		c-1.56,5.868,1.933,11.89,7.801,13.45s11.89-1.933,13.45-7.801C1081.02,470.541,1077.527,464.519,1071.658,462.959z
		 M148.952,367.304c-6.072,0-10.995,4.922-10.995,10.995c0,6.072,4.922,10.995,10.995,10.995s10.995-4.922,10.995-10.995
		C159.946,372.226,155.024,367.304,148.952,367.304z M101.308,422.277c-6.072,0-10.995,4.922-10.995,10.995
		c0,6.072,4.922,10.995,10.995,10.995s10.995-4.922,10.995-10.995C112.303,427.199,107.38,422.277,101.308,422.277z M64.659,491.909
		c-6.072,0-10.995,4.922-10.995,10.995c0,6.072,4.922,10.995,10.995,10.995s10.995-4.922,10.995-10.995
		C75.654,496.832,70.732,491.909,64.659,491.909z M60.995,572.537c-6.072,0-10.995,4.922-10.995,10.995s4.922,10.995,10.995,10.995
		s10.995-4.922,10.995-10.995S67.067,572.537,60.995,572.537z M79.319,634.839c-6.072,0-10.995,4.922-10.995,10.995
		s4.922,10.995,10.995,10.995s10.995-4.922,10.995-10.995S85.391,634.839,79.319,634.839z M488.053,331.281
		c-0.736,1.379-4.168,0.715-5.277,0.369c-2.763-0.864-5.284-2.322-7.917-3.49c-4.333-1.921-8.539-4.122-12.608-6.548
		c-8.182-4.878-15.796-10.67-22.914-16.99c-14.288-12.688-26.578-27.447-38.174-42.581c-12.616-16.467-26.022-33.716-34.107-52.967
		c-5.084-12.105-11.124-33.249-1.615-45.056c6.9-8.567,19.694-8.472,28.449-2.934c13.119,8.3,18.154,27.236,22.852,40.902
		c2.475,8.664,5.695,17.202,8.484,25.776c1.012,3.11,2.039,6.214,3.094,9.309c9.011,26.44,20.168,53.632,39.437,74.38
		c3.277,3.528,6.766,6.859,10.444,9.966c3.002,2.536,7.002,4.602,9.431,7.704C488.19,329.832,488.433,330.57,488.053,331.281z
		 M347.95,338.535c-7.407,5.638-19.713-0.14-28.061,0.383c-10.677,0.669-18.954,11.769-29.926,9.463
		c-6.303-1.324-9.868-6.884-9.293-13.215c0.742-8.165,7.784-14.123,14.458-18.031c11.695-6.848,24.31-7.372,35.808-3.232
		C342.318,317.129,360.126,329.267,347.95,338.535z M666.027,329.12c2.43-3.102,6.429-5.168,9.431-7.704
		c3.678-3.107,7.167-6.438,10.444-9.966c19.269-20.747,30.426-47.94,39.437-74.38c1.055-3.095,2.083-6.199,3.094-9.309
		c2.789-8.574,6.009-17.112,8.484-25.776c4.698-13.666,9.733-32.602,22.852-40.902c8.754-5.538,21.549-5.633,28.449,2.934
		c9.508,11.806,3.469,32.95-1.615,45.056c-8.085,19.251-21.491,36.5-34.107,52.967c-11.595,15.134-23.886,29.893-38.174,42.581
		c-7.118,6.321-14.731,12.112-22.914,16.99c-4.07,2.426-8.275,4.627-12.608,6.548c-2.634,1.168-5.154,2.626-7.917,3.49
		c-1.11,0.347-4.541,1.01-5.277-0.369C665.225,330.57,665.469,329.832,666.027,329.12z M822.722,313.903
		c11.498-4.139,24.113-3.615,35.808,3.232c6.674,3.908,13.716,9.866,14.458,18.031c0.575,6.33-2.99,11.89-9.293,13.215
		c-10.972,2.305-19.25-8.794-29.926-9.463c-8.347-0.523-20.653,5.255-28.061-0.383C793.533,329.267,811.341,317.129,822.722,313.903
		z"/>
	<path fill="#D83576" d="M1006.414,665.69c0.058-5.018,0.136-16.732-4.521-18.61c-11.617-4.684-13.841,14.282-14.99,19.167
		c-5.677,24.111-14.523,44.888-26.067,66.648c-0.32,0.603-1.983,3.815,2.173,1.921c15.872-7.236,29.448-23.677,36.947-39.198
		C1004.175,686.882,1006.301,675.44,1006.414,665.69z M1041.876,661.456c-1.635-3.322-10.917-13.032-17.26-5.39
		c-4.593,5.533-4.482,14.979-6.346,21.922c-7.228,26.928-14.333,40.781-47.313,64.292c-0.743,0.53-0.574,1.712,0.305,1.96
		C1017.34,757.241,1060.596,699.481,1041.876,661.456z M611.921,273.412l31.56-24.319c4.398-3.389,10.755-0.123,10.562,5.426
		l-0.826,23.671c-1.4,40.115-33.746,71.854-73.294,73.074c-44.459,1.371-79.602-35.728-78.051-80.182l0.762-21.846
		c0.194-5.549,6.763-8.364,10.914-4.677l29.618,26.308c0.097,0.086,0.243,0.084,0.338-0.004l30.357-28.31
		c2.65-2.471,6.802-2.327,9.273,0.324l28.45,30.507C611.672,273.479,611.818,273.491,611.921,273.412z M184.758,762.278
		c-16.471,11.793-30.149,27.365-46.373,39.703c-16.554,12.588-29.765,28.172-44.292,42.858c-2.625,2.654-6.608-0.113-5.934-3.454
		c4.458-22.088,17.396-41.486,32.32-58.191c16.811-18.817,36.967-24.333,60.838-29.08
		C186.43,753.098,188.864,759.338,184.758,762.278z M164.845,730.335c-18.669,6.194-36.21,20.124-53.603,29.536
		c-9.085,4.916-18.029,11.493-25.426,18.714c-5.987,5.844-9.99,12.768-17.587,16.544c-2.225,1.106-4.416-0.28-4.653-2.67
		c-1.942-19.582,21.217-42.031,34.558-53.834c19.899-17.605,40.856-17.132,65.798-15.039
		C167.784,723.909,168.617,729.084,164.845,730.335z"/>
	<path fill="#5B483B" d="M224.172,488.295c24.322-31.055,71.652-53.08,110.195-58.103c2.74-0.357,3.609,3.865,1.372,5.066
		c-17.976,9.65-36.904,17.371-54.94,26.89c-18.099,9.552-34.534,22.11-52.997,30.852
		C224.597,494.518,222.091,490.953,224.172,488.295z M341.553,778.794c2.402,1.301,6.029-1.548,4.099-4.099
		c-19.1-25.241-37.602-49.837-47.208-80.534c-1.098-3.508-7.206-3.113-6.757,0.915C295.425,728.563,310.707,762.089,341.553,778.794
		z M774.019,435.318c22.615,9.259,45.803,16.899,68.401,26.178c21.984,9.027,42.188,24.271,64.451,31.793
		c3.833,1.295,5.602-3.543,3.563-6.12c-13.67-17.272-39.293-26.793-59.258-34.767c-24.685-9.858-49.878-16.635-75.978-21.364
		C772.345,430.521,771.394,434.244,774.019,435.318z M1070.777,628.089c21.155,22.105,19.987,56.635-3.208,94.736
		c-52.287,85.901-168.219,112.115-173.13,113.19l-21.904,4.789l15.15-16.526c38.562-42.068,71.264-193.071,71.587-194.59l0.68-3.173
		l2.843-1.56C1003.292,602.679,1047.69,603.969,1070.777,628.089z M957.837,797.776c-14.325-6.53-25.998-9.205-32.177-10.246
		c-4.748,10.713-9.739,20.625-14.926,29.133C922.853,812.776,939.602,806.648,957.837,797.776z M1060.513,637.909
		c-18.135-18.953-54.013-19.661-88.057-2.015c-3.531,15.893-19.218,83.764-41.137,138.217c9.254,1.842,24.428,6.076,42.112,15.55
		c30.027-16.675,61.607-40.706,82.01-74.223C1075.025,683.264,1076.876,655.004,1060.513,637.909z M1108.629,682.069
		c-0.207,1.748,2.564,2.422,3.308,0.896c13.712-28.113,7.175-64.134-18.065-83.136c-2.874-2.164-6.511,1.975-4.782,4.782
		C1104.202,629.144,1112.05,653.176,1108.629,682.069z M908.665,658.349c-15.581,41.786-32.237,82.083-55.983,119.915
		c-1.197,1.907,1.589,4.096,3.137,2.42c30.989-33.538,54.016-74.748,60.55-120.212C917.093,655.435,910.495,653.443,908.665,658.349
		z M284.675,752.417c-19.273-34.961-32.16-71.637-46.609-108.672c-1.63-4.176-7.257-2.542-6.634,1.829
		c11.191,78.476,58.012,155.938,115.871,208.722c1.899,1.733,4.24-0.814,2.746-2.746
		C325.863,820.279,303.762,787.042,284.675,752.417z M1048.453,825.467c13.415,7.212,30.262,23.817,27.448,51.961
		c-4.001,39.998-130.132,200.454-442.933,211.626c-13.901,0.496-27.626,0.742-41.128,0.742
		c-119.362,0.004-222.93-19.363-308.363-57.71c-67.062-30.101-121.588-71.015-162.061-121.609
		c-12.424-15.528-16.322-31.967-11.581-48.857c13.77-49.078,98.915-86.457,124.76-96.787
		c-20.85-41.269-34.146-80.514-42.591-113.577c-21.571-84.443-17.341-146.281-17.15-148.871l0.071,0.005
		c1.919-33.356,44.682-63.857,120.948-86.102c75.387-21.987,175.487-34.096,281.867-34.096s206.48,12.109,281.867,34.096
		c78.054,22.766,121.041,54.178,121.041,88.449c0,2.13-0.168,4.248-0.498,6.354h0.498v48.165l39.079-11.994
		c40.917-8.622,89.798,12.901,113.696,50.052c16.831,26.162,35.847,82.561-25.888,166.344
		C1089.492,788.146,1069.374,808.506,1048.453,825.467z M189.037,504.737c0,17.049,16.596,34.489,47.001,50.257
		c22.276-24.341,108.084-96.069,345.819-96.069c226.894,0,330.292,67.416,354.606,86.113c19.512-12.993,29.984-26.77,29.984-40.301
		c0-52.321-156.191-108.342-388.705-108.342S189.037,452.416,189.037,504.737z M708.371,500.966c2.384,0.412,3.31-2.809,1.003-3.638
		c-55.793-20.052-117.951-22.466-176.644-18.617c-29.244,1.918-58.323,6.017-87.071,11.682c-26.99,5.319-59.894,9.864-83.958,23.68
		c-3.337,1.916-2.007,7.641,2.016,7.444c26.214-1.287,53.153-11.894,78.897-17.213c29.772-6.151,59.828-10.935,90.115-13.689
		C592.25,485.203,649.667,490.821,708.371,500.966z M613.723,524.613c-39.664-3.023-80.083-2.198-119.795-0.345
		c-5.236,0.244-5.03,7.432,0,7.989c39.752,4.405,80.977,4.068,120.326-3.721C616.588,528.075,615.842,524.775,613.723,524.613z
		 M343.051,547.514c-5.082-0.746-7.461,6.756-2.183,7.918c81.573,17.955,164.007,24.947,247.515,22.135
		c39.655-1.335,79.146-4.848,118.411-10.539c32.768-4.749,73.918-8.336,97.121-34.628c1.579-1.789-0.386-4.445-2.555-3.311
		c-32.963,17.237-70.456,20.18-106.763,24.672c-38.655,4.782-77.59,7.777-116.526,8.787
		C499.738,564.581,420.559,558.893,343.051,547.514z M1036.903,835.821l0.611-1.854c-7.369,5.501-14.806,10.585-22.264,15.315
		c11.169,3.465,28.229,13.009,20.601,38.434c-14.668,48.893-113.611,98.951-425.125,109.946
		c-311.514,10.995-469.104-84.292-465.439-124.606c3.121-34.331,84.626-64.746,108.761-73.023
		c-4.539-7.541-8.839-15.057-12.857-22.518c-22.414,8.943-105.567,44.736-117.683,87.946c-3.478,12.403-0.534,24.228,8.998,36.145
		c53.029,66.278,182.034,173.972,459.886,173.979c13.034,0,26.377-0.239,40.071-0.728
		c303.851-10.853,426.057-166.333,429.306-198.845C1064.83,845.388,1038.043,836.199,1036.903,835.821z M1096.1,755.232
		c42.012-57.013,51.024-110.367,25.382-150.234c-23.711-36.853-68.376-50.107-98.519-43.902l-56.517,17.39v-40.485
		c-18.563,21.082-54.936,40.045-106.838,55.184c-75.387,21.987-175.487,34.096-281.867,34.096s-206.48-12.109-281.867-34.096
		c-51.795-15.108-88.127-34.024-106.725-55.054c1.223,26.126,5.191,65.057,16.75,110.135
		c19.425,75.744,64.895,184.822,171.184,274.329c68.355,52.571,177.294,71.677,291.184,50.91
		c75.304-13.735,136.658-43.122,156.312-74.867l2.025-3.273l3.852-0.09C832.111,895.24,996.846,889.931,1096.1,755.232z"/>
	<path fill="#F4A6CE" d="M476.451,133.195c12.696,0,12.675,19.699,0,19.699C463.754,152.894,463.775,133.195,476.451,133.195z
		 M543.504,270.863l14.783-13.786l-13.332-11.124c-1.958-1.634-4.827-1.547-6.683,0.202l-11.127,10.484l16.02,14.23
		C543.263,270.954,543.409,270.952,543.504,270.863z M443.228,180.473c0.261,5.833,4.73,10.766,10.766,10.766
		c5.631,0,11.026-4.951,10.766-10.766c-0.261-5.833-4.73-10.766-10.766-10.766C448.362,169.708,442.968,174.659,443.228,180.473z
		 M672.95,134.713c15.77,0,15.797-24.509,0-24.509C657.18,110.205,657.154,134.713,672.95,134.713z M708.608,134.303
		c0.171,0.123,0.343,0.246,0.514,0.369c1.635,1.173,4.621,1.173,6.256,0c0.171-0.123,0.342-0.246,0.514-0.369
		c2.633-1.889,4.231-4.824,3.316-8.148c-0.81-2.942-3.815-5.438-6.957-5.297c-2.911,0.13-5.451,1.726-6.594,4.435
		C704.172,128.811,705.642,132.175,708.608,134.303z M680.136,156.145c0.325,7.26,5.888,13.4,13.4,13.4
		c7.009,0,13.724-6.163,13.4-13.4c-0.325-7.26-5.888-13.4-13.4-13.4C686.527,142.745,679.812,148.908,680.136,156.145z
		 M611.921,273.412L629.327,260l-13.887-11.588c-1.958-1.634-4.827-1.547-6.683,0.202l-10.792,10.168l13.618,14.603
		C611.672,273.479,611.818,273.491,611.921,273.412z M437.151,147.66c17.981,0,18.011-27.945,0-27.945
		C419.17,119.715,419.14,147.66,437.151,147.66z M100.294,920.034c-5.691,0-11.143,5.004-10.88,10.88
		c0.264,5.895,4.781,10.88,10.88,10.88c5.691,0,11.143-5.004,10.88-10.88C110.911,925.019,106.394,920.034,100.294,920.034z
		 M1057.88,473.569c-5.82,0.581-11.517,5.337-14.721,9.658c-0.679,0.915-1.268,1.831-1.798,2.749
		c-2.67-6.605-6.033-13.035-9.897-19.125c-0.771-5.407-0.791-11.731,0.887-16.744c1.263-3.771,4.28-7.082,5.706-10.794
		c-2.734-1.441-4.662-3.952-5.449-6.852c-6.407,1.611-10.32,10.88-11.549,16.468c-0.221,1.006-0.389,1.99-0.522,2.961
		c-4.102-4.931-8.401-9.477-12.711-13.486c-3.431-3.191-7.057-6.107-10.796-8.86c0.149-4.413-1.225-8.936-1.256-13.362
		c-0.038-5.45,1.492-10.706,1.88-16.057c-0.427-0.061-0.853-0.092-1.279-0.205c-2.719-0.723-4.893-2.426-6.326-4.606
		c-4.705,5.568-7.156,16.35-5.904,25.581c-8.146-5.036-16.553-9.666-24.744-14.527c-1.261-4.155-2.515-8.383-2.984-12.619
		c-0.439-3.967-0.111-7.923-0.27-11.864c-1.229,0.105-2.49,0.046-3.751-0.289c-1.971-0.524-3.642-1.582-4.976-2.938
		c-3.08,5.352-3.43,12.283-1.957,18.877c-11.573-7.993-21.987-17.401-29.655-30.339c-1.476,1.681-3.434,2.91-5.682,3.447
		c6.751,32.922,40.84,46.257,67.084,61.981c17.239,10.328,31.777,23.822,42.51,40.883c10.209,16.228,14.164,34.129,21.826,51.331
		c1.002,2.25,5.109,1.771,5.476-0.716c1.201-8.147,0.578-16.472-1.341-24.695c1.543-3.496,3.807-6.838,6.154-9.503
		c2.79-3.167,6.622-5.346,9.758-8.119C1059.255,479.737,1057.876,476.754,1057.88,473.569z M1079.049,918.584
		c-7.428,0-14.545,6.532-14.201,14.201c0.345,7.694,6.24,14.201,14.201,14.201c7.429,0,14.545-6.532,14.201-14.201
		C1092.906,925.091,1087.01,918.584,1079.049,918.584z M1105.249,861.104c-15.181,0-15.206,23.593,0,23.593
		C1120.43,884.696,1120.455,861.104,1105.249,861.104z M77.838,876.648c-14.444,0-14.468,22.447,0,22.447
		C92.281,899.095,92.305,876.648,77.838,876.648z M135.852,960.021c-13.117,0-13.139,20.386,0,20.386
		C148.969,980.407,148.991,960.021,135.852,960.021z M1045.363,959.563c-5.571,0-10.909,4.899-10.651,10.651
		c0.258,5.771,4.68,10.651,10.651,10.651c5.571,0,10.909-4.899,10.651-10.651C1055.756,964.443,1051.334,959.563,1045.363,959.563z
		 M230.21,282.139c14.502,28.387,7.67,53.872-8.396,77.578c-0.562-4.236-1.892-8.433-3.225-11.744
		c-2.949-7.328-7.982-14.598-14.956-18.546c-0.764,3.366-3.068,6.13-6.136,7.538c4.457,5.285,9.01,10.05,11.614,16.816
		c2.193,5.697,1.69,12.357,3.693,17.986c-10.614,13.027-23.466,25.555-36.371,37.789c0.148-4.958-1.333-10.368-2.773-14.212
		c-2.625-7.006-6.958-13.892-13.716-17.071c0,0.009,0.003,0.017,0.003,0.025c0,3.495-1.662,6.573-4.204,8.586
		c3.074,4.233,6.396,8.281,8.272,13.303c2.046,5.478,1.287,12.288,3.842,17.475c-14.101,13.323-27.673,26.346-37.816,39.339
		c-2.604-10.544-8.531-21.221-17.813-24.491c0.018,0.256,0.077,0.501,0.077,0.761c0,3.424-1.597,6.443-4.051,8.46
		c2.756,3.421,6.031,6.442,8.582,10.145c2.931,4.254,5.13,9.132,6.764,14.124c-1.124,1.738-2.18,3.476-3.15,5.216
		c-6.87,12.321-12.159,25.487-15.961,39.092c-2.24-5.236-5.765-9.789-11.392-13.157c-5.723-3.425-14.247-4.788-20.542-1.876
		c1.912,1.978,3.101,4.661,3.101,7.63c0,0.777-0.086,1.534-0.239,2.266c4.682-0.046,9.213,0.8,13.288,3.959
		c5.106,3.959,9.269,10.722,12.126,16.792c-3.29,17.078-4.377,34.596-3.326,51.832c0.155,2.536,0.346,5.099,0.572,7.683
		c-7.42-6.659-19.227-10.184-28.23-8.376c1.333,1.819,2.145,4.043,2.145,6.471c0,1.329-0.272,2.586-0.704,3.765
		c4.391,1.25,8.846,2.391,12.883,4.48c5.786,2.995,9.96,8.459,15.805,11.132c0.06,0.027,0.121,0.036,0.181,0.06
		c1.783,12.07,4.351,24.339,7.819,36.334c-1.703-0.836-3.538-1.558-5.683-2.025c-4.743-1.033-10.172-0.55-14.346,1.813
		c1.462,1.867,2.369,4.188,2.369,6.743c0,1.959-0.555,3.771-1.453,5.364c4.272-1.482,8.27-2.749,12.952-1.273
		c3.822,1.205,8.043,3.767,11.801,6.454c5.56,14.845,12.639,28.851,21.463,40.982c2.401,3.301,8.312,1.504,6.997-2.95
		c-6.547-22.172-16.767-43.073-22.697-65.538c-5.914-22.405-8.957-45.495-8.187-68.675c1.558-46.932,19.211-88.807,52.851-121.648
		c27.31-26.661,60.813-49.358,75.832-85.854c9.779-23.761,12.216-54.696-4.273-75.579
		C234.422,279.346,232.543,281.147,230.21,282.139z"/>
</g>
</svg>
